<?xml version="1.0" encoding="utf-8"?>
<svg viewBox="0 0 512 512" xmlns="http://www.w3.org/2000/svg">
  <g transform="matrix(2.19457, 0, 0, 2.212041, -0.98838, -0.350695)">
    <path d="M 66.27 24.97 C 63.143 21.677 60.08 18.34 57.08 14.96 C 56.629 14.456 56.66 13.686 57.15 13.22 L 70.57 0.56 C 70.968 0.184 71.595 0.202 71.97 0.6 L 111.57 42.47 C 111.877 42.79 111.981 43.259 111.84 43.69 L 95.06 96.6 C 94.891 97.144 94.464 97.568 93.92 97.73 L 42.21 113.09 C 41.707 113.238 41.167 113.095 40.81 112.72 L 1.14 70.79 C 0.708 70.33 0.726 69.613 1.18 69.19 L 14.58 56.55 C 15.043 56.106 15.785 56.133 16.23 56.61 L 47.31 89.44 C 47.531 89.672 47.86 89.761 48.16 89.67 L 77.72 80.83 C 78.019 80.743 78.256 80.51 78.35 80.21 L 88.08 49.41 C 88.332 48.621 88.121 47.748 87.53 47.14 C 80.543 39.92 73.457 32.53 66.27 24.97 Z" fill="#008dd0"/>
    <path d="M 146.54 13.8 C 150.56 9.647 154.53 5.643 158.45 1.79 C 158.984 1.267 159.83 1.259 160.36 1.77 L 173.56 14.67 C 173.908 15.01 173.908 15.574 173.56 15.93 L 142.43 47.99 C 141.921 48.512 141.743 49.262 141.97 49.93 L 151.77 78.6 C 151.869 78.893 152.113 79.118 152.42 79.2 L 184.27 87.88 C 184.566 87.961 184.884 87.873 185.1 87.65 L 216.31 55.54 C 217.014 54.813 218.167 54.795 218.87 55.5 L 231.6 68.22 C 232.026 68.649 232.026 69.341 231.6 69.77 L 191.73 110.65 C 191.359 111.032 190.807 111.182 190.29 111.04 L 136.84 96.57 C 136.17 96.388 135.635 95.886 135.41 95.23 L 118.02 44.05 C 117.898 43.699 117.983 43.309 118.24 43.04 C 128.007 32.94 137.44 23.193 146.54 13.8 Z" fill="#008dd0"/>
    <path d="M 207.45 132.55 C 216.477 141.27 225.247 149.92 233.76 158.5 C 234.246 158.994 234.255 159.778 233.78 160.26 L 220.43 173.69 C 220.269 173.86 219.99 173.856 219.81 173.68 L 187.04 141.91 C 186.82 141.69 186.498 141.613 186.21 141.71 L 156.88 151.64 C 156.554 151.753 156.303 152.026 156.21 152.37 L 147.6 183.87 C 147.482 184.295 147.608 184.754 147.93 185.07 L 180.23 216.61 C 180.687 217.056 180.701 217.785 180.26 218.24 L 167.41 231.47 C 167.053 231.835 166.468 231.844 166.1 231.49 L 124.75 191.37 C 124.435 191.067 124.313 190.614 124.43 190.19 L 139.03 136.77 C 139.218 136.087 139.735 135.541 140.41 135.31 L 190.59 118.14 C 191.437 117.851 192.375 118.059 193.02 118.68 C 198.06 123.507 202.87 128.13 207.45 132.55 Z" fill="#95c6eb"/>
    <path d="M 4.01 166.11 C 3.417 165.603 2.903 165.02 2.47 164.36 C 2.225 163.986 2.271 163.493 2.58 163.17 L 42.89 121.86 C 43.112 121.637 43.436 121.549 43.74 121.63 L 97.56 136.36 C 98.172 136.529 98.66 136.994 98.86 137.6 L 116.14 188.68 C 116.282 189.098 116.182 189.557 115.88 189.87 L 75.74 230.89 C 75.13 231.502 74.148 231.511 73.55 230.91 L 60.8 218.18 C 60.363 217.744 60.363 217.031 60.8 216.58 L 92.18 184.42 C 92.511 184.084 92.623 183.592 92.47 183.15 L 82.6 154.29 C 82.495 153.984 82.251 153.752 81.95 153.67 L 50.18 144.98 C 49.791 144.875 49.371 144.993 49.08 145.29 L 17.88 177.25 C 17.282 177.863 16.311 177.894 15.69 177.32 C 12.29 174.18 8.973 170.953 5.74 167.64 C 5.607 167.5 5.03 166.99 4.01 166.11 Z" fill="#008dd0"/>
  </g>
</svg>